<svg xmlns="http://www.w3.org/2000/svg" viewBox="0 0 96 97"><rect width="96" height="97" rx="21" fill="#FF5600"/><g fill="#ffffff" transform="translate(16 16.2) scale(0.667)"><path d="M0.0467396 40.5166C2.36543 40.4844 4.68406 40.5811 6.99202 40.8061C15.1982 41.6236 23.104 44.3293 30.0902 48.7114C32.1978 50.056 34.0322 51.3248 35.7495 53.1524C36.3971 53.8601 37.3402 54.5528 37.9457 55.2771C39.6822 57.3539 41.8532 59.1723 43.5455 61.2492C43.0232 62.0416 42.2333 62.7686 41.5655 63.4584L38.6091 66.5282C34.3909 70.8562 30.2181 75.2281 26.0914 79.6431C25.705 80.0319 25.2721 80.5064 24.953 80.9479C24.3417 80.2128 22.8496 78.8156 22.1132 78.0704L14.9135 70.8333L26.3848 59.2479C27.8976 57.713 30.0099 55.7159 31.3744 54.1649L8.10041 54.1693C5.44774 54.1633 2.68484 54.224 0.0438372 54.1505C-0.0490401 49.7611 0.032295 44.9376 0.0467396 40.5166Z"/><path d="M41.6231 0L55.412 0.0348964C55.4065 2.45322 55.2719 4.86958 55.0088 7.27353C54.0589 17.794 49.7831 27.7385 42.8014 35.6654C41.1433 37.5706 39.221 39.3359 37.4447 41.1304C36.5145 42.0703 35.6139 43.0017 34.5891 43.841C33.498 43.1601 31.5444 41.0995 30.5329 40.1024L23.1866 32.8167C20.6569 30.4081 17.8269 27.3271 15.2389 25.0726C16.7707 23.4288 18.4181 21.8177 20.0162 20.2312C21.6435 18.6158 23.3321 16.7675 25.0117 15.233C28.2125 18.4258 31.5835 21.6343 34.7127 24.8703L38.4536 28.7764C39.137 29.5007 40.967 31.4779 41.6908 31.9662C41.6477 30.9498 41.6916 29.921 41.6812 28.9013C41.6428 26.0855 41.6322 23.2692 41.6492 20.4531L41.6231 0Z"/><path d="M61.3087 52.1806C61.8386 52.3297 78.466 69.0797 80.4478 70.9312C79.1471 72.6943 77.7384 74.0665 76.2035 75.6189L72.8495 79.0789C72.184 79.7606 71.4746 80.4302 70.8293 81.1234C70.0349 80.2183 68.9906 79.2773 68.1219 78.4174C66.1335 76.4505 64.2064 74.433 62.176 72.5086C61.6759 72.0348 61.3667 71.2673 60.8976 70.7591C59.2291 69.1 57.5882 67.4463 56.0062 65.7021C55.4455 65.0838 54.7328 64.2995 54.0937 63.7845C53.9368 65.1999 54.001 67.559 54.0251 68.9967C54.0409 70.4081 54.0352 71.8195 54.008 73.2309C54.0439 76.3209 54.0511 79.4117 54.0294 82.5024L54.0514 96.1296C49.5701 96.0918 45.0348 96.2092 40.5688 96.1363C40.5513 95.1056 40.5559 94.0743 40.5824 93.0429C40.8012 84.9573 42.8132 77.0209 46.4731 69.8067C47.3752 68.0112 48.6108 65.7359 49.8378 64.1443C53.1235 59.8838 57.3992 55.8745 61.3087 52.1806Z"/><path d="M70.9272 15.4526C71.1162 15.5523 71.4584 15.95 71.6285 16.1247C73.8384 18.3875 76.0773 20.6226 78.2663 22.9048C78.9993 23.6688 79.8336 24.5964 80.6287 25.2854C79.654 26.3365 77.976 27.9058 76.9163 28.9633L70.0511 35.8844C68.2556 37.6679 65.9971 39.8112 64.2948 41.645C65.4895 41.7824 67.366 41.7293 68.6147 41.728L75.8485 41.7218L88.4139 41.7253C90.6724 41.7239 93.3568 41.7568 95.6045 41.6834C95.5363 43.0682 95.6011 44.7777 95.6031 46.1915L95.6214 55.3852L93.4277 55.3591C92.6555 55.3303 91.8833 55.2905 91.1118 55.2397C81.9429 54.6055 73.0061 51.9754 65.3377 46.7656C62.4838 44.8265 59.9871 42.4138 57.5104 40.035C56.4865 39.0384 55.4718 38.0323 54.4664 37.017C53.7369 36.2926 52.9869 35.6115 52.3104 34.8354C52.5083 34.4027 52.7182 34.0707 53.0506 33.7267C54.7562 31.9624 56.5478 30.2383 58.2539 28.477L70.9272 15.4526Z"/></g></svg>